<svg width="19" height="19" viewBox="0 0 19 19" fill="none" xmlns="http://www.w3.org/2000/svg">
<path d="M2.2726 6.85953C2.48723 6.6491 2.77829 6.53089 3.08177 6.53089C3.38525 6.53089 3.67631 6.6491 3.89094 6.85953L9.55629 12.4156L15.2216 6.85953C15.4375 6.65506 15.7266 6.54193 16.0267 6.54448C16.3268 6.54704 16.6138 6.66509 16.826 6.8732C17.0382 7.08131 17.1586 7.36283 17.1612 7.65714C17.1638 7.95144 17.0485 8.23497 16.84 8.44667L10.3655 14.7964C10.1508 15.0068 9.85978 15.125 9.55629 15.125C9.25281 15.125 8.96175 15.0068 8.74712 14.7964L2.2726 8.44667C2.05804 8.23618 1.9375 7.95073 1.9375 7.6531C1.9375 7.35546 2.05804 7.07002 2.2726 6.85953Z" fill="black"/>
</svg>
