<svg width="23" height="23" viewBox="0 0 23 23" fill="none" xmlns="http://www.w3.org/2000/svg">
<path d="M18.6008 19.3238L12.8883 13.6113C12.4349 13.974 11.9135 14.2612 11.3241 14.4727C10.7348 14.6843 10.1076 14.7901 9.44266 14.7901C7.79541 14.7901 6.40144 14.2195 5.26076 13.0782C4.12008 11.9369 3.54943 10.5429 3.54883 8.89627C3.54822 7.24962 4.11887 5.85566 5.26076 4.71437C6.40265 3.57308 7.79662 3.00244 9.44266 3.00244C11.0887 3.00244 12.483 3.57308 13.6255 4.71437C14.768 5.85566 15.3383 7.24962 15.3365 8.89627C15.3365 9.56121 15.2307 10.1884 15.0191 10.7778C14.8075 11.3671 14.5204 11.8885 14.1577 12.3419L19.8702 18.0544L18.6008 19.3238ZM9.44266 12.9766C10.5761 12.9766 11.5396 12.5801 12.3334 11.787C13.1271 10.9939 13.5236 10.0303 13.523 8.89627C13.5224 7.76224 13.1258 6.79897 12.3334 6.00648C11.5409 5.21399 10.5773 4.81714 9.44266 4.81593C8.30802 4.81472 7.34476 5.21157 6.55287 6.00648C5.76098 6.80139 5.36413 7.76465 5.36231 8.89627C5.3605 10.0279 5.75735 10.9914 6.55287 11.787C7.34838 12.5825 8.31164 12.979 9.44266 12.9766Z" fill="black"/>
</svg>
