<svg width="166" height="47" viewBox="0 0 166 47" fill="none" xmlns="http://www.w3.org/2000/svg">
<rect x="0.72168" y="1.57129" width="164.81" height="44.898" rx="22.449" fill="#D9E9FF"/>
<rect x="0.72168" y="0.739746" width="84.8287" height="44.898" rx="22.449" fill="#16498A" fill-opacity="0.57"/>
<path d="M30.3608 34.7099C29.2974 34.7099 28.2561 34.5595 27.2368 34.2589C26.2248 33.9509 25.3704 33.5109 24.6738 32.9389L25.8838 31.0579C26.2504 31.3732 26.6758 31.6445 27.1598 31.8719C27.6511 32.0992 28.1718 32.2752 28.7218 32.3999C29.2718 32.5172 29.8218 32.5759 30.3718 32.5759C31.3764 32.5759 32.1868 32.3852 32.8028 32.0039C33.4261 31.6225 33.7378 31.0652 33.7378 30.3319C33.7378 29.7819 33.5251 29.3162 33.0998 28.9349C32.6818 28.5535 31.9044 28.2015 30.7678 27.8789L29.1838 27.4169C27.7318 26.9989 26.6721 26.4452 26.0048 25.7559C25.3448 25.0665 25.0148 24.2085 25.0148 23.1819C25.0148 22.4999 25.1504 21.8839 25.4218 21.3339C25.7004 20.7839 26.0891 20.3072 26.5878 19.9039C27.0938 19.5005 27.6878 19.1925 28.3698 18.9799C29.0518 18.7672 29.7998 18.6609 30.6138 18.6609C31.6478 18.6609 32.6084 18.8112 33.4958 19.1119C34.3831 19.4125 35.1164 19.8159 35.6958 20.3219L34.4418 22.1479C34.1264 21.8619 33.7561 21.6162 33.3308 21.4109C32.9128 21.2055 32.4618 21.0479 31.9778 20.9379C31.4938 20.8279 31.0024 20.7729 30.5038 20.7729C29.8878 20.7729 29.3414 20.8645 28.8648 21.0479C28.3954 21.2239 28.0288 21.4805 27.7648 21.8179C27.5008 22.1552 27.3688 22.5659 27.3688 23.0499C27.3688 23.4019 27.4568 23.7099 27.6328 23.9739C27.8088 24.2379 28.1094 24.4799 28.5348 24.6999C28.9674 24.9125 29.5614 25.1289 30.3168 25.3489L31.9888 25.8439C33.4114 26.2619 34.4528 26.8082 35.1128 27.4829C35.7728 28.1502 36.1028 29.0192 36.1028 30.0899C36.1028 31.0065 35.8754 31.8132 35.4208 32.5099C34.9734 33.1992 34.3208 33.7382 33.4628 34.1269C32.6048 34.5155 31.5708 34.7099 30.3608 34.7099ZM41.8652 34.7099C41.1099 34.7099 40.4462 34.5705 39.8742 34.2919C39.3022 34.0059 38.8549 33.6062 38.5322 33.0929C38.2169 32.5722 38.0592 31.9599 38.0592 31.2559C38.0592 30.6619 38.2096 30.1265 38.5102 29.6499C38.8109 29.1659 39.2766 28.7662 39.9072 28.4509C40.5452 28.1355 41.3629 27.9265 42.3602 27.8239C43.3576 27.7139 44.5566 27.7285 45.9572 27.8679L46.0012 29.5399C45.0039 29.4005 44.1459 29.3419 43.4272 29.3639C42.7086 29.3859 42.1182 29.4775 41.6562 29.6389C41.2016 29.7929 40.8642 30.0019 40.6442 30.2659C40.4316 30.5225 40.3252 30.8195 40.3252 31.1569C40.3252 31.6849 40.5122 32.0919 40.8862 32.3779C41.2676 32.6639 41.7882 32.8069 42.4482 32.8069C43.0129 32.8069 43.5189 32.7042 43.9662 32.4989C44.4136 32.2935 44.7656 32.0039 45.0222 31.6299C45.2862 31.2559 45.4182 30.8159 45.4182 30.3099V27.4169C45.4182 26.9329 45.3156 26.5149 45.1102 26.1629C44.9049 25.8035 44.5932 25.5249 44.1752 25.3269C43.7572 25.1289 43.2366 25.0299 42.6132 25.0299C42.0412 25.0299 41.4766 25.1179 40.9192 25.2939C40.3619 25.4625 39.8302 25.7302 39.3242 26.0969L38.6422 24.3149C39.3242 23.8529 40.0356 23.5265 40.7762 23.3359C41.5169 23.1452 42.2282 23.0499 42.9102 23.0499C43.9222 23.0499 44.7876 23.2112 45.5062 23.5339C46.2322 23.8492 46.7896 24.3295 47.1782 24.9749C47.5669 25.6129 47.7612 26.4195 47.7612 27.3949V34.3799H45.5832V33.0929C45.2166 33.6135 44.7069 34.0132 44.0542 34.2919C43.4016 34.5705 42.6719 34.7099 41.8652 34.7099ZM50.9789 34.3799V18.5399H53.3989V34.3799H50.9789ZM61.7302 34.7099C60.5569 34.7099 59.5265 34.4715 58.6392 33.9949C57.7519 33.5109 57.0589 32.8362 56.5602 31.9709C56.0689 31.1055 55.8232 30.1009 55.8232 28.9569C55.8232 28.1209 55.9662 27.3509 56.2522 26.6469C56.5382 25.9355 56.9415 25.3195 57.4622 24.7989C57.9829 24.2782 58.5915 23.8749 59.2882 23.5889C59.9922 23.3029 60.7585 23.1599 61.5872 23.1599C62.4892 23.1599 63.2922 23.3212 63.9962 23.6439C64.7002 23.9592 65.2832 24.4029 65.7452 24.9749C66.2145 25.5469 66.5445 26.2179 66.7352 26.9879C66.9332 27.7505 66.9662 28.5792 66.8342 29.4739H58.1442C58.1295 30.1265 58.2725 30.6985 58.5732 31.1899C58.8739 31.6739 59.3029 32.0515 59.8602 32.3229C60.4249 32.5942 61.0885 32.7299 61.8512 32.7299C62.4672 32.7299 63.0612 32.6382 63.6332 32.4549C64.2125 32.2642 64.7369 31.9855 65.2062 31.6189L66.1412 33.3569C65.7892 33.6429 65.3639 33.8885 64.8652 34.0939C64.3665 34.2919 63.8459 34.4422 63.3032 34.5449C62.7605 34.6549 62.2362 34.7099 61.7302 34.7099ZM58.2872 27.6919H64.4582C64.4362 26.8705 64.1722 26.2252 63.6662 25.7559C63.1675 25.2865 62.4562 25.0519 61.5322 25.0519C60.6375 25.0519 59.8932 25.2865 59.2992 25.7559C58.7125 26.2252 58.3752 26.8705 58.2872 27.6919Z" fill="white"/>
<path d="M105.326 33.5488V18.1488H111.145C112.216 18.1488 113.14 18.3358 113.917 18.7098C114.702 19.0765 115.307 19.6008 115.732 20.2828C116.165 20.9648 116.381 21.7752 116.381 22.7138C116.381 23.4765 116.216 24.1512 115.886 24.7378C115.564 25.3245 115.109 25.8085 114.522 26.1898C113.936 26.5638 113.257 26.8168 112.487 26.9488L117.129 33.5488H114.148L109.891 27.3338H107.79V33.5488H105.326ZM107.79 25.2878H110.738C111.736 25.2878 112.509 25.0752 113.059 24.6498C113.617 24.2245 113.895 23.6158 113.895 22.8238C113.895 22.0098 113.646 21.3755 113.147 20.9208C112.656 20.4662 111.912 20.2388 110.914 20.2388H107.79V25.2878ZM124.589 33.8788C123.415 33.8788 122.385 33.6405 121.498 33.1638C120.61 32.6798 119.917 32.0052 119.419 31.1398C118.927 30.2745 118.682 29.2698 118.682 28.1258C118.682 27.2898 118.825 26.5198 119.111 25.8158C119.397 25.1045 119.8 24.4885 120.321 23.9678C120.841 23.4472 121.45 23.0438 122.147 22.7578C122.851 22.4718 123.617 22.3288 124.446 22.3288C125.348 22.3288 126.151 22.4902 126.855 22.8128C127.559 23.1282 128.142 23.5718 128.604 24.1438C129.073 24.7158 129.403 25.3868 129.594 26.1568C129.792 26.9195 129.825 27.7482 129.693 28.6428H121.003C120.988 29.2955 121.131 29.8675 121.432 30.3588C121.732 30.8428 122.161 31.2205 122.719 31.4918C123.283 31.7632 123.947 31.8988 124.71 31.8988C125.326 31.8988 125.92 31.8072 126.492 31.6238C127.071 31.4332 127.595 31.1545 128.065 30.7878L129 32.5258C128.648 32.8118 128.222 33.0575 127.724 33.2628C127.225 33.4608 126.704 33.6112 126.162 33.7138C125.619 33.8238 125.095 33.8788 124.589 33.8788ZM121.146 26.8608H127.317C127.295 26.0395 127.031 25.3942 126.525 24.9248C126.026 24.4555 125.315 24.2208 124.391 24.2208C123.496 24.2208 122.752 24.4555 122.158 24.9248C121.571 25.3942 121.234 26.0395 121.146 26.8608ZM132.206 33.5488V22.6588H134.626V24.0448C135.081 23.4362 135.609 22.9998 136.21 22.7358C136.812 22.4645 137.435 22.3288 138.08 22.3288C139.078 22.3288 139.903 22.5268 140.555 22.9228C141.208 23.3188 141.692 23.8285 142.007 24.4518C142.33 25.0752 142.491 25.7168 142.491 26.3768V33.5488H140.071V27.1248C140.071 26.3475 139.837 25.7242 139.367 25.2548C138.905 24.7855 138.26 24.5508 137.431 24.5508C136.889 24.5508 136.405 24.6718 135.979 24.9138C135.561 25.1558 135.231 25.4932 134.989 25.9258C134.747 26.3512 134.626 26.8498 134.626 27.4218V33.5488H132.206ZM150.103 33.8788C149.039 33.8788 148.189 33.5708 147.551 32.9548C146.913 32.3388 146.594 31.3965 146.594 30.1278V19.4798H149.014V22.6588H152.039V24.6608H149.014V29.5998C149.014 30.3625 149.157 30.9015 149.443 31.2168C149.736 31.5248 150.147 31.6788 150.675 31.6788C150.931 31.6788 151.173 31.6495 151.401 31.5908C151.628 31.5322 151.833 31.4552 152.017 31.3598L152.446 33.3178C152.13 33.4792 151.767 33.6112 151.357 33.7138C150.953 33.8238 150.535 33.8788 150.103 33.8788ZM144.207 24.6608V22.6588H146.913V24.6608H144.207Z" fill="#4282D5"/>
</svg>
