<svg width="23" height="23" viewBox="0 0 23 23" fill="none" xmlns="http://www.w3.org/2000/svg">
<path d="M11.5406 3.00238C9.85718 3.00238 8.24275 3.6711 7.05242 4.86143C5.86209 6.05176 5.19337 7.6662 5.19337 9.34958C5.19337 11.9447 6.80918 14.4482 8.58277 16.3877C9.48964 17.3757 10.4792 18.2846 11.5406 19.1043C11.6989 18.9828 11.8848 18.8347 12.0982 18.66C12.9504 17.9602 13.7524 17.2016 14.4984 16.3895C16.2719 14.4482 17.8878 11.9456 17.8878 9.34958C17.8878 7.6662 17.219 6.05176 16.0287 4.86143C14.8384 3.6711 13.2239 3.00238 11.5406 3.00238ZM11.5406 21.3313L11.0264 20.9776L11.0237 20.9758L11.0183 20.9713L11.0001 20.9586L10.9321 20.9105L10.6873 20.7319C9.44677 19.7996 8.29431 18.7555 7.24442 17.6127C5.39104 15.5834 3.37988 12.6465 3.37988 9.34867C3.37988 7.18432 4.23967 5.10862 5.77009 3.5782C7.30052 2.04777 9.37622 1.18799 11.5406 1.18799C13.7049 1.18799 15.7806 2.04777 17.311 3.5782C18.8415 5.10862 19.7012 7.18432 19.7012 9.34867C19.7012 12.6465 17.6901 15.5843 15.8367 17.6109C14.7871 18.7536 13.635 19.7977 12.3947 20.7301C12.2914 20.8073 12.1871 20.8831 12.0819 20.9577L12.0628 20.9704L12.0574 20.9749L12.0556 20.9758L11.5406 21.3313ZM11.5406 7.53609C11.0596 7.53609 10.5983 7.72716 10.2582 8.06725C9.91814 8.40735 9.72708 8.86861 9.72708 9.34958C9.72708 9.83054 9.91814 10.2918 10.2582 10.6319C10.5983 10.972 11.0596 11.1631 11.5406 11.1631C12.0215 11.1631 12.4828 10.972 12.8229 10.6319C13.163 10.2918 13.3541 9.83054 13.3541 9.34958C13.3541 8.86861 13.163 8.40735 12.8229 8.06725C12.4828 7.72716 12.0215 7.53609 11.5406 7.53609ZM7.9136 9.34958C7.9136 8.38765 8.29572 7.46511 8.97591 6.78492C9.6561 6.10473 10.5786 5.72261 11.5406 5.72261C12.5025 5.72261 13.425 6.10473 14.1052 6.78492C14.7854 7.46511 15.1675 8.38765 15.1675 9.34958C15.1675 10.3115 14.7854 11.234 14.1052 11.9142C13.425 12.5944 12.5025 12.9765 11.5406 12.9765C10.5786 12.9765 9.6561 12.5944 8.97591 11.9142C8.29572 11.234 7.9136 10.3115 7.9136 9.34958Z" fill="black"/>
</svg>
