<svg width="23" height="22" viewBox="0 0 23 22" fill="none" xmlns="http://www.w3.org/2000/svg">
<path d="M6.93506 10.2157H16.0025C16.243 10.2157 16.4736 10.1202 16.6437 9.95015C16.8137 9.78011 16.9092 9.54947 16.9092 9.30899C16.9092 9.06851 16.8137 8.83787 16.6437 8.66783C16.4736 8.49778 16.243 8.40225 16.0025 8.40225H12.3755V5.14704L13.0918 5.87244C13.1761 5.95742 13.2764 6.02488 13.3869 6.07091C13.4974 6.11695 13.6159 6.14065 13.7356 6.14065C13.8553 6.14065 13.9738 6.11695 14.0843 6.07091C14.1948 6.02488 14.2951 5.95742 14.3794 5.87244C14.4644 5.78814 14.5319 5.68785 14.5779 5.57736C14.6239 5.46686 14.6476 5.34835 14.6476 5.22865C14.6476 5.10895 14.6239 4.99043 14.5779 4.87994C14.5319 4.76944 14.4644 4.66915 14.3794 4.58486L12.1126 2.318C12.0263 2.23545 11.9246 2.17074 11.8133 2.12759C11.5926 2.0369 11.345 2.0369 11.1242 2.12759C11.0129 2.17074 10.9112 2.23545 10.825 2.318L8.55813 4.58486C8.38739 4.7556 8.29147 4.98718 8.29147 5.22865C8.29147 5.47011 8.38739 5.70169 8.55813 5.87244C8.72888 6.04318 8.96045 6.1391 9.20192 6.1391C9.44339 6.1391 9.67496 6.04318 9.84571 5.87244L10.562 5.14704V8.40225H6.93506C6.69458 8.40225 6.46395 8.49778 6.2939 8.66783C6.12385 8.83787 6.02832 9.06851 6.02832 9.30899C6.02832 9.54947 6.12385 9.78011 6.2939 9.95015C6.46395 10.1202 6.69458 10.2157 6.93506 10.2157ZM16.0025 12.0292H6.93506C6.69458 12.0292 6.46395 12.1247 6.2939 12.2948C6.12385 12.4648 6.02832 12.6955 6.02832 12.936C6.02832 13.1764 6.12385 13.4071 6.2939 13.5771C6.46395 13.7472 6.69458 13.8427 6.93506 13.8427H10.562V17.0979L9.84571 16.3725C9.76116 16.288 9.6608 16.2209 9.55033 16.1752C9.43987 16.1294 9.32148 16.1058 9.20192 16.1058C9.08236 16.1058 8.96396 16.1294 8.8535 16.1752C8.74304 16.2209 8.64268 16.288 8.55813 16.3725C8.47359 16.4571 8.40653 16.5574 8.36077 16.6679C8.31502 16.7783 8.29147 16.8967 8.29147 17.0163C8.29147 17.1359 8.31502 17.2543 8.36077 17.3647C8.40653 17.4752 8.47359 17.5755 8.55813 17.6601L10.825 19.9269C10.9112 20.0095 11.0129 20.0742 11.1242 20.1174C11.2328 20.1653 11.3501 20.1901 11.4688 20.1901C11.5874 20.1901 11.7048 20.1653 11.8133 20.1174C11.9246 20.0742 12.0263 20.0095 12.1126 19.9269L14.3794 17.6601C14.5502 17.4893 14.6461 17.2578 14.6461 17.0163C14.6461 16.7748 14.5502 16.5433 14.3794 16.3725C14.2087 16.2018 13.9771 16.1058 13.7356 16.1058C13.4942 16.1058 13.2626 16.2018 13.0918 16.3725L12.3755 17.0979V13.8427H16.0025C16.243 13.8427 16.4736 13.7472 16.6437 13.5771C16.8137 13.4071 16.9092 13.1764 16.9092 12.936C16.9092 12.6955 16.8137 12.4648 16.6437 12.2948C16.4736 12.1247 16.243 12.0292 16.0025 12.0292Z" fill="black"/>
</svg>
